<?xml version="1.0" encoding="utf-8"?>
<!-- Generator: Adobe Illustrator 21.0.0, SVG Export Plug-In . SVG Version: 6.00 Build 0)  -->
<svg version="1.1" id="Layer_1" xmlns="http://www.w3.org/2000/svg" xmlns:xlink="http://www.w3.org/1999/xlink" x="0px" y="0px"
	 viewBox="0 0 720.1 818" style="enable-background:new 0 0 720.1 818;" xml:space="preserve">
<style type="text/css">
	.st0{fill:#19171C;}
	.st1{fill:#FFFFFF;}
	.st2{fill:#9D9EA0;}
</style>
<path class="st0" d="M2.5,0.1c239.2-0.1,478.4,0,717.6,0c0,8.8,0,17.6,0,26.4c-239.2,0-478.4-0.1-717.6,0C2.5,17.6,2.5,8.9,2.5,0.1z
	"/>
<path class="st0" d="M271.1,59.8c14.1-6,30.2-5.9,44.7-1.6c8.7,2.5,16.1,8.4,21.4,15.7c1.4-5.4,3-10.8,4.6-16.1
	c11.2,0.1,22.4,0,33.6,0c-0.1,22,0,44,0,66.1c-13.5-0.1-26.9,0.1-40.4-0.1c0-8.5-3.4-17.2-9.9-22.7c-5.7-4.8-13.7-6.6-20.9-4.8
	c-8.1,1.9-14.5,8.2-18.5,15.3c-6.8,12.2-7.8,27.1-4.6,40.5c2.1,8.5,6.5,17.1,14,22c7.7,5.2,17.9,5.5,26.5,2.3
	c3.9-1.7,7.1-4.8,9.2-8.5c0.3-3.1,0.1-6.3,0.1-9.4c-4.4,0-8.9-0.1-13.3,0c-0.1-8.1,0-16.2-0.1-24.3c24.8-0.1,49.5,0,74.2,0
	c-0.1,8.1,0.1,16.2-0.1,24.3c-3-0.1-6-0.1-9,0c0.2,18.4-0.1,36.8,0.1,55.2c-2.5,0.5-5.1,0.4-7.7,0.2c-12.4-0.3-24.9,0.4-37.3-0.1
	c-2.2-4.5-4.4-9.1-6.7-13.6c-6.8,10.2-19.4,14.6-31.1,15.7c-16.9,1.3-34.4-3.7-47.6-14.5c-15-11.9-23.9-30.4-26.4-49.2
	c-2.3-18.4-0.6-37.8,7.4-54.6C241.1,81.1,254.3,66.9,271.1,59.8z"/>
<path class="st0" d="M0.1,57.7c44.4,0,88.9,0.1,133.3-0.1c0,16.5,0,33,0,49.5c-13.2,0-26.5,0-39.7,0c0-6.6,0-13.2,0-19.8
	c-11.2-0.1-22.3,0-33.5,0c0,12.9,0,25.9,0,38.8c14.1-0.1,28.3-0.1,42.4,0c-0.1,10,0,20-0.1,30c-14.1-0.1-28.2,0-42.3-0.1
	c0,9.4-0.1,18.8,0.1,28.2c7.5-0.1,15.1,0,22.6,0c-0.2,10,0.3,20-0.3,30c-5.8-0.8-11.7-0.6-17.5-0.2c-3.7-0.1-7.3-0.6-11-0.1
	c-3-0.3-6-0.3-9,0c-10-0.6-20,0.3-30-0.2c-5-0.2-9.9,0.2-14.8,0.4c-0.3-10-0.1-19.9-0.2-29.9c4.5,0,8.9,0,13.4,0.1
	c0-32.3,0-64.6,0-96.9c-4.5-0.1-9,0-13.4-0.1C0.1,77.5,0.1,67.6,0.1,57.7z"/>
<path class="st0" d="M142.1,57.7c24.8,0.1,49.6,0.1,74.4,0c0,9.9,0,19.8,0,29.7c-4.7,0-9.4-0.1-14.1,0c0.1,32.3,0,64.6,0.1,96.9
	c4.7-0.1,9.3-0.1,14,0c-0.1,9.8,0,19.6-0.1,29.4c-24.8,0.3-49.5-0.1-74.3,0.1c-0.1-9.9-0.1-19.7,0-29.6c4.5,0,9.1,0,13.6,0.1
	c0.4-7.5-0.2-14.9,0.4-22.4c-0.2-3.7-0.6-7.4-0.1-11c-0.5-6-0.1-12.1,0.2-18.1l-0.5-0.7c0-3.1,0-6.1,0.1-9.2c0.6-9-0.5-18,0-26.9
	c0.3-2.9,0-5.7-0.1-8.6c-4.6,0-9.2,0-13.8,0C142.1,77.5,142.2,67.6,142.1,57.7z"/>
<path class="st0" d="M400.6,57.7c24.2,0,48.5,0,72.7,0c-0.1,9.9-0.1,19.7,0,29.6c-4.7,0.1-9.5,0-14.2,0c0.1,11.1,0,22.3,0,33.4
	c14.1,0,28.2,0,42.3,0c0.1-11.1,0-22.3,0.1-33.4c-4.4-0.1-8.9,0-13.3-0.1c0.1-9.9,0.2-19.7,0-29.6c24.3-0.1,48.6,0,72.8-0.1
	c-0.1,9.9-0.1,19.8,0,29.7c-4.3,0-8.5,0-12.8,0c0,32.4,0,64.8,0,97.2c4.3,0,8.5,0,12.8,0c0,9.7-0.1,19.4,0.1,29.2
	c-15.3,0.6-30.6,0-46,0.1c-9,0.6-17.9-0.2-26.9,0c0.1-9.8,0.1-19.5,0-29.3c4.4,0,8.9,0,13.3,0c0-11.1-0.2-22.1,0.1-33.2
	c-1.1-0.4-2.3-0.6-3.5-0.6c-12.9,0-25.8,0.2-38.6-0.1c-0.6,11.3-0.1,22.6-0.3,33.8c4.7,0.1,9.4-0.1,14.2,0.1c-0.1,9.7-0.1,19.3,0,29
	c-16.8,0.6-33.6,0-50.4,0.3c-4,0.5-7.9-0.3-11.9-0.1c-3.5,0-7.1,1-10.6-0.1c0.3-9.7,0.1-19.4,0.1-29.1c4,0,8.1,0,12.1,0
	c0-32.4,0-64.8,0-97.1c-4.1,0-8.1,0.1-12.2,0C400.7,77.5,400.6,67.6,400.6,57.7z"/>
<path class="st0" d="M569.7,57.7c50,0.1,99.9,0.1,149.8,0c0.1,19.5,0.2,39.1-0.1,58.6c-10.9-0.2-21.9-0.1-32.8,0
	c-0.3-9.6,0-19.2-0.1-28.8c-6.1,0-12.3,0-18.4-0.1c0,32.3-0.1,64.7,0,97c6.2-0.1,12.3-0.1,18.4,0c-0.1,9.7,0.1,19.4-0.1,29.1
	c-0.3,0.2-0.8,0.5-1,0.7c-3.8-0.1-7.6-0.7-11.4-0.2c-1.3-0.1-2.7-0.1-4,0c-6-0.3-12-0.2-18,0.2c-8-0.7-16,0.3-24-0.4
	c-8.2,0.8-16.4-0.6-24.5,0.5c-0.3-10,0-19.9-0.1-29.9c6.1-0.1,12.1-0.1,18.2,0c0.1-32.3-0.1-64.6,0.1-96.9c-6.3,0-12.7-0.1-19,0.1
	c0,9.6,0.2,19.1-0.1,28.7c-11-0.1-21.9,0-32.8,0C569.7,96.7,569.8,77.2,569.7,57.7z"/>
<path class="st0" d="M90.7,250.8c11.1-6.7,24.4-10.9,37.4-8.5c9.9,1.5,20.3,6.1,26.1,14.5c2.2-3.9,3.5-8.4,5.4-12.5
	c11.7,0,23.4,0,35.2,0c-0.1,21.3,0.2,42.6-0.2,63.8c-13.3-0.2-26.6-0.1-39.9-0.1c-0.4-8-2.7-16.4-8.5-22.2c-6.5-6.8-18-8-25.7-2.7
	c-7.6,5.2-11.4,14.1-13.7,22.7c-3.1,12.8-3.2,26.6,1.7,38.9c2.7,6.8,7.3,13.2,13.7,17c7.9,4.9,18.2,5.2,26.6,1.5
	c8.6-3.7,15.7-10,21.7-17.1c0.8-0.8,1.3-1.9,2.4-2.2c8.6,9.7,17.5,19,26,28.7c-14.5,15.8-33.9,27.5-55.3,30.6
	c-17.7,2.4-36.2,0.2-52.2-7.8c-16.6-8.1-29.2-23.6-34.8-41.1c-5.3-17.2-5.9-36-1.8-53.5C59.8,280.5,72.8,262,90.7,250.8z"/>
<path class="st0" d="M207.5,244.4c23.6,0,47.3,0,70.9,0c-0.1,9.7,0,19.3,0,29c-0.2,0.2-0.7,0.6-1,0.8c-3.7,0.2-7.4,0-11,0
	c-0.1,32.3,0,64.5,0,96.8c9.5-0.1,19.1-0.1,28.6,0c-0.1-9.4,0.1-18.9,0-28.3c12.6-0.1,25.2,0,37.9-0.1c0.1,11.6,0.1,23.3,0,34.9
	c7.3,0.8,14.6,3,20.9,6.9c9,5.1,15.2,14.6,25.3,17.9c8.7,0.5,17.6-0.4,26.2,1c2.9,0.4,5.7,1.9,8.7,1.2c20.5,3.2,40.4,10,59.1,18.9
	c13.1,5.1,26.6,9.3,40.1,13.3c2.3,0.6,4.5,1.4,6.9,1.4c45-0.1,89.9,0.1,134.9-0.1c0.1,8.9,0.3,17.8-0.1,26.7
	c-29.2-0.2-58.4,0-87.6-0.1c12.5,12.7,23.3,27.1,31.2,43c6,12.5,8.1,27.1,4.6,40.6c-2.1,9.4-6.8,17.9-11.3,26.3
	c-1.6,3.7-4,7.4-3.8,11.6c0.6,21.7-2,43.5-7.7,64.4c-5.1,18.5-14.3,36.2-28.6,49.3c-6.9,6.5-15.5,10.9-24.5,13.5
	c-14.5,3.5-29.6,3-44.2,0.5c-10.3,11.5-24.4,20.1-39.9,22c-8,0.7-16.2,1.5-24.2,0.3c-3.5-0.3-6.8-1.7-10.3-1.7
	c-4.7,8.2-12.3,14.1-20.1,19.3c-5.6,3.9-11.6,7.2-17.4,10.8c-14.6,8.4-30.7,13.4-46.3,19.4c-3.7,1.5-7.5,2.7-10.6,5.3
	c-10.1,8.7-19.9,18.1-31.9,24.2c-5.8,2.7-12,4.8-18.4,4.8c-11.3,0.1-22.8-1.9-33.1-6.7c-14-6.8-25.3-18.2-34.2-30.8
	c-12.6-17.5-21.2-37.4-30-57c-7.3-17.7-14.9-36-15.2-55.5c-0.3-5.5,0.9-11-0.3-16.4c-3.3-16.7-9.2-32.7-15.1-48.7
	c-2.7-6.2-4.2-13.1-3.6-19.9c0-2.4,0.9-5-0.3-7.3c-5-11.2-8.2-23.7-6.3-36.1c0.6-3.9,2.5-7.6,2.5-11.6c0.9-14.2,2.1-28.4,5.5-42.2
	c1.5-7.2,3.3-14.4,5.2-21.5c-29.1,0.1-58.1,0.1-87.2,0c0.1-8.9,0.1-17.7,0-26.6c34.1,0,68.1,0,102.2,0c6.7-7.4,15.1-13.3,24.3-17.1
	c10.5-4.3,21.5-7.2,32.7-8.4c8.9-1.4,18.1-0.6,27-1.8c2.2-0.3,4.1-1.5,6-2.5c4.3-2.4,8.9-4.5,13-7.2c-16.6-0.3-33.2,0-49.8-0.1
	c0-9.9,0-19.8,0-29.7c4.1-0.2,8.2-0.1,12.3-0.1c0-32.3,0-64.5,0-96.8c-4.1,0.1-8.1,0-12.1,0.1C207.3,264.3,207.5,254.3,207.5,244.4
	 M316.2,406.6c-18.7,4.2-35.6,13.9-52.3,22.9c-6.1,3.2-12,6.9-18.8,8.4c-7.9,1.8-16,1.4-24.1,1.8c-12.2,0.9-24.5,3.4-35.5,9
	c-9.3,4.6-15.7,13.6-18.9,23.3c-2.9,9-4.9,18.3-6.5,27.6c-2.7,11.9-2.7,24.3-4.2,36.4c-0.4,4.1-2.6,7.8-2.4,11.9
	c0.5,7.1,3.5,13.7,6.2,20.2c2.1,5,1.8,10.6,1.1,15.8c-0.8,4.3,1.6,8.2,2.9,12.1c6,16.3,11.7,32.8,15.2,49.8
	c6.6,19.8,24.2,35.9,45.1,39.1c11.4,1.5,23,0.7,34.2-1.9c-3.6,5.9-10.7,7.9-17.1,8.3c-8,1.4-16.7,0.7-24.1,4.5c2.4,2.3,5.8,2.7,9,3
	c9.4,0.4,18.6-2.3,27.6-4.8c7.3-2.4,14.8,3.7,22,0.4c3.8-2,8.4-3.5,10.6-7.5c1.9-3.1,2.8-6.8,3.2-10.4c1.1-9.9,0-19.9-1.3-29.8
	c-2.5-17.2-6.1-34.1-10.1-51c-1.4-17.3-6.6-34.4-16.5-48.8c1.9,2.1,3.9,4.1,6.1,5.9c-2-14.6-3.9-29.4-9.5-43.2c1.7,1,2.3,3,3.1,4.7
	c1.9,4.4,3.6,8.8,5.3,13.2c11.1,31.4,18.2,64,24.8,96.6c1.8,12,4.9,24.7,13.2,34c4.2,4.7,10.4,6.9,16.6,7.1c-4.3,1.5-9,2.9-12.1,6.4
	c-1,1.6-0.9,4.1,0.6,5.4c7.2,6.5,17,9.3,26.4,10.6c12.6,1.8,25.4-1.5,36.9-6.6c-2.7,3.5-6.9,5.2-11,6.4c-14.5,4.6-30.1,2.6-44.9,5.6
	c0.4,0.9,1.1,1.4,2.1,1.5c10.4,2.8,21,6.6,31.9,5.5c8.6-1.4,17.4-2.4,25.3-6.2c8.6-4.2,15.1-12.2,17.6-21.5c4-12.9,2.2-26.6,1-39.8
	c-2.6-27.3-7.7-54.3-14.3-81c-4.7-18.2-10.1-36.3-18.5-53.2c4.1,2.5,6.8,6.6,9.3,10.6c7.2,12.9,11,27.3,14,41.7
	c4.4,21.6,9.1,43.2,13.3,64.8c2.9,14.5,4.5,29.3,4.6,44.2c0.3,5.6,2.5,12.4,8.5,14.2c10.6,2.6,21.5,2.4,32.4,2.4
	c-0.6,0.4-1.3,0.7-2,0.9c-10.6,2.4-21.6,3.7-32.3,1.5c11.1,4.7,22.7,8.5,34.7,10.1c5.6,0.7,11.7,0.9,16.7-2.1
	c4-2.3,8.4-4.1,11.8-7.2c3.8-3.7,5.4-9,6.4-14c2.4-12.8,2-26,2.3-39c0-24.8-0.1-49.9-6.6-74c-1.8-9.5-3.5-19.2-3.2-28.9
	c3,12.1,6.5,24.1,10.1,36c3.4,13.7,2.4,27.8,3.1,41.8c0.8,22.8-0.1,45.6-1.4,68.3c5.8,3.6,12.2,6.4,18.6,8.5
	c5.8,1.7,11.9,3,17.8,1.7c-6.1,3.6-13.2,4.5-20.1,4.8c-5.4-0.1-10.9-1.5-16.2-0.1c9.5,1.6,19.1,2.8,28.7,1.9
	c6.5-0.9,13.4-2.5,18.5-7c9.3-7.9,15.7-18.7,19.7-30.2c6.1-17.9,8.5-37,9-55.8c0.2-6-0.6-12.1,0.9-18c2.4-10.3,8.8-18.9,12.9-28.5
	c1.3-3.5,2.5-7.1,2.3-10.9l0.3-0.5c0.8-11.4-5.7-21.4-11.7-30.6c-9.1-13.3-20.2-25.5-33.5-34.7c-4-3.1-9.3-3-14-4.3
	c-13.2-3-26.1-7.2-38.9-11.5c-7.6-2.7-15.4-5.1-22.6-8.9c-18.5-8.1-38.3-14-58.5-15.6c-9.9-0.6-20.1,1.3-29.6-2.3
	c-10.1-4-18.2-11.4-26.4-18.4C334.1,404.4,324.5,404.9,316.2,406.6 M183.3,687c4.6,15.9,11.9,30.9,18.8,46c1.2,3,3.7,5.7,7,6.3
	c3.8,0.7,8.6,1.4,11.4-1.8c1.8-3.2,3-6.9,3.1-10.6c-4.8-4.7-10.1-8.8-14.5-14C201.3,703.5,191.7,695.9,183.3,687 M377.9,695.9
	c2.1,4,4.2,8.8,2.4,13.4c-1.4,2.6-4.6,3.3-7.3,3.9c-12.3,2.4-25.1,2.9-37.1,6.8c-7.5,2.2-12.2,10.9-10.2,18.3
	c2.7,3.9,5.4,7.8,8.3,11.7c15.3-5.1,29.3-13.4,42.5-22.6c4.6-3.5,10.1-8,9.6-14.4C385.7,706.6,382.9,700.1,377.9,695.9 M299.1,721
	c-6.5,1.8-12.5,5-19,6.9c-8.5,2.6-17.3,4-26.2,5c-2.7,0.6-6.2,0.8-7.6,3.5c-2.8,4.8-1,10.5-0.4,15.6c0.8,4.4,0.2,9,2,13.2
	c2.3,4.5,7.1,7,9.7,11.3c2.5,3.2,4.5,8.3,9.3,8c5-1.2,10.6-1.3,14.7-4.8c7.7-6,14.4-13.3,22.9-18.3c1.7-1.2,4-2,4.6-4.2
	c3.7-10.4,4.9-22.7-0.8-32.6C306.7,721.3,302.6,719.8,299.1,721z"/>
<path class="st0" d="M341.4,244.4c23.7,0,47.4,0,71.1,0c0,9.7,0,19.4,0,29.1c-4-0.1-7.9,0-11.9-0.1c0,18.9-0.1,37.7,0.1,56.6
	c0.9,9.7,1,20.2,6.9,28.5c4.3,6.2,12.7,7.4,19.6,6.4c5.2-0.5,10.1-3.6,12.5-8.3c5.1-9.7,4.9-20.9,5.7-31.5c0-16.9-0.1-33.8,0.1-50.7
	c-4-0.3-7.9-0.2-11.9-0.1c-0.4-10-0.1-19.9-0.2-29.9c22.1,0,44.2-0.1,66.3,0.1c-0.1,9.7,0,19.3,0,29c-4.1,0-8.2,0-12.2,0
	c0,16.2,0,32.4,0,48.6c0.3,17-0.8,34.6-7.7,50.4c-5,11.5-14.1,21.4-25.7,26.4c-6.5,3-13.5,4.5-20.6,5.4c-6.8,0.4-13.7,0.9-20.3-0.6
	c-1.5-0.2-23.9-4.7-32.5-10.8c-10.5-6.8-17.7-17.8-21.6-29.5c-4.5-13.2-5.1-27.4-4.9-41.2c0-16.1,0-32.2,0-48.3c-4.2,0-8.4,0-12.5,0
	C341.4,263.9,341.4,254.1,341.4,244.4z"/>
<path class="st0" d="M508.4,244.4c28.6,0,57.2,0,85.7,0c14.2,0.4,29.6,2.4,41,11.7c8.5,6.9,11.7,18.3,11.3,28.9
	c-0.5,7.4-1.2,15.3-5.9,21.4c-3.8,5.3-9.7,8.3-15.5,11c10.2,3,19.9,9.4,24.7,19.1c4,7.1,4.5,15.5,4.1,23.5
	c-0.3,11.5-4.9,23.4-14.5,30.2c-11,7.9-25.1,9.6-38.3,10.4c-30.9,0.1-61.8,0-92.7,0.1c0-9.8,0-19.6,0-29.4c4.3,0.1,8.6,0.1,12.9,0
	c-0.1-28.8,0-57.5,0-86.3c0-3.9,0.2-7.7-0.3-11.6c-4.2,0.1-8.3,0-12.5,0.1C508.2,263.8,508.4,254.1,508.4,244.4 M567.4,274.2
	c0,11.1,0,22.1,0,33.2c7.1-0.5,14.7,1.2,21.5-1.5c5.8-2.3,7.1-9.4,7.2-14.9c0.3-6.7-3.1-14.2-10-16.2
	C580,273.5,573.7,274.5,567.4,274.2 M567.5,332.7c-0.2,12.9,0,25.8-0.1,38.6c5.9,0.1,11.7,0,17.6,0.1c6.3,0.2,12.6-3.3,15.6-8.8
	c5-9.1,2.9-23-7.1-27.8C585.4,331.2,576.2,333.4,567.5,332.7z"/>
<path class="st1" d="M567.4,274.2c6.2,0.3,12.6-0.7,18.7,0.7c6.8,2,10.3,9.5,10,16.2c-0.1,5.6-1.4,12.6-7.2,14.9
	c-6.8,2.7-14.3,1-21.5,1.5C567.4,296.3,567.4,285.2,567.4,274.2z"/>
<path class="st1" d="M567.5,332.7c8.6,0.7,17.8-1.5,26,2.1c10,4.8,12,18.7,7.1,27.8c-3,5.5-9.4,9-15.6,8.8c-5.9,0-11.7,0-17.6-0.1
	C567.5,358.5,567.3,345.6,567.5,332.7z"/>
<path class="st1" d="M316.2,406.6c8.3-1.7,17.9-2.2,24.9,3.3c8.1,7,16.3,14.4,26.4,18.4c9.5,3.6,19.7,1.8,29.6,2.3
	c20.2,1.6,40,7.5,58.5,15.6c7.2,3.8,15,6.2,22.6,8.9c12.8,4.3,25.7,8.4,38.9,11.5c4.7,1.3,10,1.2,14,4.3
	c13.3,9.3,24.4,21.4,33.5,34.7c5.9,9.2,12.5,19.1,11.7,30.6l-0.3,0.5c-3.2,4.2-5.2,9-7.8,13.5c-3.7,6.9-7.5,13.7-10,21.1
	c-4.3,12.2-7.5,24.8-9.7,37.6c-1.8,10.9-0.5,22.5-5.3,32.7c-2.3-6.8-3-14.2-6.1-20.7c-1.1,8.5,0.8,17-0.1,25.5
	c-5.3-8.1-8.1-17.6-11.6-26.5c-0.2,10.6,1.5,21.1,1.5,31.8c-5.8-10-8.4-21.4-13.3-31.7c0.6,12.8,2.3,25.7,2.3,38.5
	c-4.1-12.6-6.2-25.7-10-38.4c-0.4,9.7,0.5,19.5-0.1,29.2c-1-5.1-2.6-10-3.3-15.1c-1-11.7-0.6-23.4-1.2-35.1
	c-1.4-22.5-2.6-45.3-9.4-66.9c-3.5-10.5-8.4-21.6-18.3-27.6c-2.4-1.5-7.1-3-8,0.9c-1.7,8.8,1.2,17.7,2,26.5
	c2.1,22.2,8.1,43.8,8.6,66.1c0.1,9.4,2.2,18.7,3,28.1c0.9,8.1-0.2,16.3-1.9,24.2c-3.6-10.2-5.9-20.9-8.9-31.4
	c0.6,14.4,2.1,28.7,3.2,43c-6-14-9.3-28.9-15.1-43c1.7,15.6,2.5,31.3,4.1,46.9c-5.4-15.5-10.1-31.3-15-47c0.3,14.5,2.7,28.9,3,43.4
	c-4.5-14.6-9.8-28.8-14.2-43.4c-0.1,12.5,2.3,24.9,2.1,37.4c-4.7-12.4-8.8-25-13.9-37.3c0.7,12.8,2.9,25.6,3,38.4
	c-3.4-8.1-6-16.5-9.1-24.7c-2-6-4.9-11.8-5.9-18.1c-1.5-9.9-3.9-19.7-6.9-29.2c-2.6-8.3-4.4-16.8-5.3-25.4c-1.4-10.6-1.1-21.4-3-32
	c-1.2-7.1-5-13.4-9.2-19c-4.9-7-10.9-13.1-17.3-18.8c-4.9-3.9-10.5-8.3-17.1-7.8c-3.7,0.3-3.7,5-3.1,7.8c2.5,11.3,9.1,21,13.8,31.3
	c4.5,9.5,6.9,20,7.3,30.5c0.9,17.1,3,34.2,7.4,50.8c3.4,11.2,7,22.7,6,34.5c-2.4-6.1-3.8-12.5-5.8-18.7c-1.4,10-0.1,20.3-2.8,30.1
	c-3.1-8.7-5.9-17.5-8.8-26.3c-0.5-1.4-1.3-2.8-2-4.1c-0.5,11.1,0.1,22.3-0.3,33.4c-4.6-11.4-7.9-23.2-11.3-35
	c-0.1,12,1.3,24,1.9,35.9c-5.4-11.8-8.7-24.5-13.8-36.5c0.6,12.5,2,24.9,2.3,37.4c-4.4-12.3-8.6-24.6-13.4-36.7
	c0,10.4,1.6,20.7,1.7,31.1c-5-10.4-8.5-21.4-13.3-31.9c0.2,8.9,1.5,17.8,1.7,26.7c-5.2-8.5-8.3-18-13-26.7
	c0.1,6.4,1.2,12.8,1.2,19.2c-5.4-11.6-10.8-23.2-15.8-35c-2.7-6.5-5.9-12.9-6.7-20c-2.2-17.3-2.8-34.8-6.4-52
	c-1.2-5-2.4-10.2-5.5-14.5c-5.4-7.4-11.6-14-17.8-20.7c-0.4,14.3,1.8,28.7,1.5,43c-3-9.6-7-19-10.2-28.5c-0.6-1.7-1.4-3.2-2.3-4.7
	c-0.9,10.6-1.1,21.3,0.9,31.8c3.6,12,8.6,23.5,13.1,35.1c2.1,5.3,5,10.4,6.2,16.1c3,12.8,5.5,25.6,8,38.5c0.8,4.3,0.8,8.7,0.9,13
	c0,8,1.1,16,0.6,24c-4.5-15-8.7-30.1-12.9-45.3c0.2,17.8,3.3,35.6,3.2,53.4c-4.7-18.1-9.7-36.2-15-54.2c1.6,18.3,3.3,36.7,5,55
	c-5.8-17.9-10.5-36.1-16-54.1c0.7,17.8,3.1,35.5,4.2,53.3c-5.5-17.7-10.4-35.6-15.3-53.5c-0.2,4.8,0.3,9.5,0.9,14.2
	c1,12.4,2.4,24.7,3.3,37.1c-5.3-17.4-10.7-34.7-15.9-52.1c0.4,10,1.8,20,2.6,30c0.2,4.8,1.7,9.5,0.9,14.3
	c-4.5-14.9-10-29.4-14.7-44.3c0.4,12.3,2.9,24.4,3.6,36.7c-4.2-6.4-6.8-13.7-10.5-20.4c-3.3-5.9-5-12.5-8.7-18.1
	c-4.1-8-7.9-16.3-10.1-25.1c-1.9-7.8-4.5-15.4-8.1-22.6c-2-3.9-4.2-7.9-4.8-12.3c-2-17.8-2.4-35.9-5.7-53.6
	c1.6-9.3,3.6-18.6,6.5-27.6c3.1-9.7,9.5-18.7,18.9-23.3c11-5.6,23.3-8,35.5-9c8-0.4,16.2,0,24.1-1.8c6.8-1.5,12.7-5.2,18.8-8.4
	C280.6,420.5,297.5,410.9,316.2,406.6z"/>
<path class="st2" d="M348.8,490c-0.6-2.8-0.6-7.5,3.1-7.8c6.6-0.5,12.2,3.9,17.1,7.8c6.3,5.7,12.4,11.8,17.3,18.8
	c4.3,5.7,8,12,9.2,19c1.9,10.6,1.6,21.4,3,32c0.9,8.6,2.7,17.1,5.3,25.4c3.1,9.5,5.4,19.3,6.9,29.2c1,6.3,3.9,12.1,5.9,18.1
	c3.1,8.2,5.7,16.6,9.1,24.7c-0.1-12.9-2.3-25.6-3-38.4c5.1,12.3,9.2,24.9,13.9,37.3c0.2-12.5-2.2-24.9-2.1-37.4
	c4.3,14.6,9.6,28.9,14.2,43.4c-0.2-14.5-2.6-28.9-3-43.4c4.9,15.7,9.6,31.4,15,47c-1.6-15.6-2.4-31.3-4.1-46.9
	c5.7,14.1,9.1,29,15.1,43c-1.1-14.3-2.6-28.7-3.2-43c3,10.5,5.3,21.1,8.9,31.4c1.7-7.9,2.8-16.1,1.9-24.2c-0.8-9.4-2.8-18.6-3-28.1
	c-0.5-22.3-6.5-44-8.6-66.1c-0.8-8.8-3.7-17.7-2-26.5c1-3.9,5.6-2.4,8-0.9c9.8,6,14.8,17.1,18.3,27.6c6.8,21.6,8,44.4,9.4,66.9
	c0.5,11.7,0.2,23.4,1.2,35.1c0.7,5.1,2.3,10,3.3,15.1c0.7-9.7-0.3-19.5,0.1-29.2c3.8,12.7,5.9,25.8,10,38.4
	c0-12.9-1.7-25.7-2.3-38.5c4.9,10.4,7.5,21.8,13.3,31.7c0-10.6-1.7-21.2-1.5-31.8c3.5,9,6.3,18.4,11.6,26.5c0.9-8.5-1-17,0.1-25.5
	c3.1,6.5,3.8,13.9,6.1,20.7c4.8-10.2,3.5-21.9,5.3-32.7c2.2-12.8,5.5-25.4,9.7-37.6c2.5-7.4,6.3-14.2,10-21.1
	c2.5-4.5,4.6-9.4,7.8-13.5c0.2,3.8-1,7.4-2.3,10.9c-4,9.6-10.5,18.2-12.9,28.5c-1.6,5.9-0.7,12-0.9,18c-0.5,18.9-2.9,37.9-9,55.8
	c-3.9,11.5-10.4,22.3-19.7,30.2c-5.1,4.5-11.9,6-18.5,7c-9.6,0.9-19.3-0.3-28.7-1.9c5.2-1.5,10.8,0,16.2,0.1
	c6.9-0.4,14.1-1.3,20.1-4.8c-6,1.4-12.1,0-17.8-1.7c-6.5-2.2-12.8-4.9-18.6-8.5c1.3-22.7,2.3-45.5,1.4-68.3
	c-0.8-13.9,0.3-28.1-3.1-41.8c-3.6-11.9-7.1-23.9-10.1-36c-0.2,9.7,1.5,19.4,3.2,28.9c6.5,24.1,6.6,49.2,6.6,74
	c-0.2,13,0.2,26.1-2.3,39c-1,5.1-2.7,10.3-6.4,14c-3.5,3.1-7.9,4.9-11.8,7.2c-5,3-11.1,2.8-16.7,2.1c-12-1.6-23.6-5.5-34.7-10.1
	c10.7,2.2,21.7,0.9,32.3-1.5c0.7-0.2,1.4-0.6,2-0.9c-10.8,0-21.8,0.2-32.4-2.4c-6-1.8-8.2-8.6-8.5-14.2c-0.2-14.8-1.8-29.6-4.6-44.2
	c-4.2-21.6-8.8-43.2-13.3-64.8c-3-14.3-6.8-28.8-14-41.7c-2.4-4-5.2-8.1-9.3-10.6c8.3,16.9,13.7,35,18.5,53.2
	c6.6,26.6,11.6,53.7,14.3,81c1.1,13.2,3,26.9-1,39.8c-2.4,9.3-9,17.3-17.6,21.5c-7.9,3.8-16.8,4.8-25.3,6.2c-11,1-21.5-2.7-31.9-5.5
	c-1-0.1-1.7-0.6-2.1-1.5c14.8-3,30.4-1,44.9-5.6c4.1-1.2,8.3-2.9,11-6.4c-11.5,5.1-24.2,8.4-36.9,6.6c-9.5-1.3-19.2-4.1-26.4-10.6
	c-1.5-1.3-1.6-3.8-0.6-5.4c3.1-3.5,7.8-4.9,12.1-6.4c-6.2-0.1-12.4-2.4-16.6-7.1c-8.4-9.3-11.4-21.9-13.2-34
	c-6.6-32.6-13.7-65.2-24.8-96.6c-1.6-4.5-3.4-8.9-5.3-13.2c-0.9-1.7-1.4-3.7-3.1-4.7c5.6,13.7,7.5,28.6,9.5,43.2
	c-2.2-1.8-4.2-3.8-6.1-5.9c9.9,14.3,15.1,31.5,16.5,48.8c3.9,16.9,7.6,33.8,10.1,51c1.3,9.9,2.4,19.9,1.3,29.8
	c-0.5,3.6-1.3,7.2-3.2,10.4c-2.3,3.9-6.8,5.4-10.6,7.5c-7.2,3.3-14.7-2.8-22-0.4c-9,2.5-18.1,5.1-27.6,4.8c-3.2-0.2-6.6-0.6-9-3
	c7.4-3.8,16.1-3.1,24.1-4.5c6.5-0.4,13.6-2.4,17.1-8.3c-11.2,2.6-22.8,3.4-34.2,1.9c-20.8-3.3-38.5-19.3-45.1-39.1
	c-3.4-17.1-9.2-33.5-15.2-49.8c-1.3-3.9-3.7-7.8-2.9-12.1c0.8-5.3,1.1-10.8-1.1-15.8c-2.7-6.5-5.7-13.1-6.2-20.2
	c-0.2-4.1,2.1-7.8,2.4-11.9c1.5-12.1,1.4-24.5,4.2-36.4c3.3,17.7,3.7,35.7,5.7,53.6c0.6,4.4,2.8,8.4,4.8,12.3
	c3.6,7.2,6.1,14.8,8.1,22.6c2.2,8.8,6,17,10.1,25.1c3.8,5.6,5.4,12.2,8.7,18.1c3.7,6.7,6.3,14,10.5,20.4
	c-0.7-12.3-3.2-24.4-3.6-36.7c4.7,14.8,10.2,29.4,14.7,44.3c0.8-4.7-0.7-9.5-0.9-14.3c-0.7-10-2.1-20-2.6-30
	c5.2,17.4,10.6,34.8,15.9,52.1c-0.9-12.4-2.3-24.8-3.3-37.1c-0.6-4.7-1-9.5-0.9-14.2c4.9,17.9,9.8,35.8,15.3,53.5
	c-1.1-17.8-3.5-35.5-4.2-53.3c5.5,18,10.2,36.2,16,54.1c-1.7-18.3-3.4-36.6-5-55c5.3,18,10.3,36,15,54.2c0.1-17.8-3-35.5-3.2-53.4
	c4.2,15.1,8.4,30.2,12.9,45.3c0.5-8-0.6-16-0.6-24c-0.1-4.4,0-8.7-0.9-13c-2.5-12.9-5-25.7-8-38.5c-1.1-5.7-4-10.8-6.2-16.1
	c-4.6-11.6-9.5-23.1-13.1-35.1c-2-10.4-1.8-21.2-0.9-31.8c0.9,1.5,1.7,3.1,2.3,4.7c3.2,9.6,7.2,18.9,10.2,28.5
	c0.3-14.3-1.9-28.6-1.5-43c6.1,6.7,12.4,13.3,17.8,20.7c3.1,4.3,4.3,9.5,5.5,14.5c3.6,17.1,4.1,34.7,6.4,52c0.9,7,4.1,13.5,6.7,20
	c5,11.8,10.4,23.4,15.8,35c0-6.4-1.1-12.8-1.2-19.2c4.7,8.7,7.8,18.3,13,26.7c-0.2-8.9-1.5-17.8-1.7-26.7
	c4.8,10.5,8.3,21.5,13.3,31.9c-0.1-10.4-1.7-20.7-1.7-31.1c4.7,12.1,9,24.4,13.4,36.7c-0.3-12.5-1.7-24.9-2.3-37.4
	c5.1,12,8.4,24.7,13.8,36.5c-0.7-12-2.1-23.9-1.9-35.9c3.4,11.8,6.7,23.6,11.3,35c0.5-11.1-0.1-22.3,0.3-33.4c0.7,1.3,1.5,2.7,2,4.1
	c2.9,8.8,5.6,17.6,8.8,26.3c2.6-9.8,1.3-20.1,2.8-30.1c2,6.2,3.4,12.6,5.8,18.7c1-11.8-2.6-23.3-6-34.5c-4.4-16.6-6.5-33.7-7.4-50.8
	c-0.5-10.5-2.9-21-7.3-30.5C357.9,511,351.4,501.3,348.8,490z"/>
<path class="st2" d="M183.3,687c8.3,8.9,18,16.5,25.8,25.9c4.4,5.1,9.7,9.3,14.5,14c-0.1,3.7-1.3,7.3-3.1,10.6
	c-2.8,3.2-7.7,2.5-11.4,1.8c-3.3-0.6-5.8-3.3-7-6.3C195.3,717.9,187.9,702.9,183.3,687z"/>
<path class="st2" d="M377.9,695.9c5,4.2,7.7,10.7,8.3,17.1c0.5,6.4-5,10.9-9.6,14.4c-13.2,9.1-27.2,17.5-42.5,22.6
	c-2.8-3.8-5.5-7.8-8.3-11.7c-2-7.4,2.7-16.1,10.2-18.3c12-4,24.8-4.4,37.1-6.8c2.7-0.6,5.9-1.3,7.3-3.9
	C382.1,704.7,380.1,699.9,377.9,695.9z"/>
<path class="st2" d="M299.1,721c3.5-1.2,7.6,0.3,9.3,3.6c5.7,9.9,4.5,22.2,0.8,32.6c-0.6,2.2-2.9,3-4.6,4.2
	c-8.5,4.9-15.2,12.2-22.9,18.3c-4.1,3.5-9.7,3.6-14.7,4.8c-4.9,0.3-6.9-4.8-9.3-8c-2.6-4.3-7.4-6.8-9.7-11.3
	c-1.8-4.2-1.2-8.8-2-13.2c-0.6-5.1-2.5-10.8,0.4-15.6c1.4-2.8,4.9-3,7.6-3.5c8.8-1,17.6-2.4,26.2-5C286.6,726,292.6,722.8,299.1,721
	z"/>
</svg>
