<?xml version="1.0" encoding="utf-8"?>
<!-- Generator: Adobe Illustrator 19.0.0, SVG Export Plug-In . SVG Version: 6.00 Build 0)  -->
<svg version="1.1" id="Layer_1" xmlns="http://www.w3.org/2000/svg" xmlns:xlink="http://www.w3.org/1999/xlink" x="0px" y="0px"
	 viewBox="-160 307.9 227 227" style="enable-background:new -160 307.9 227 227;" xml:space="preserve">
<g id="_x23_000000ff">
</g>
<g id="_x23_ffffffff">
	<path d="M-59.5,308.6c22.4-2.6,45.6,1.6,65.6,12.1c25.4,13.2,45.4,36.4,54.7,63.4c7.9,22.6,8.3,47.8,1.2,70.6
		c-7.8,25.6-25.1,48.1-47.6,62.3c-19,12.2-41.8,18.4-64.3,17.6c-26-0.7-51.5-10.7-71-27.9c-17.9-15.5-30.7-36.8-36-59.9
		c-5.9-25.2-2.9-52.4,8.6-75.6C-131.9,337.3-97.3,312.6-59.5,308.6 M-58.5,314.9c-37,3.9-70.5,28.8-85.8,62.5
		c-7.7,16.4-10.6,34.7-9.3,52.7c1.4,22.6,11,44.5,25.8,61.6c14.8,17.2,35.2,29.5,57.4,34.6c18.1,3.9,37.3,3.4,55-1.9
		c23.4-7.2,44.4-22.5,58-42.9c23-33.1,24.6-79.5,3.9-114.1c-12.1-21-31.4-37.5-54-46.2C-23.6,314.8-41.3,312.9-58.5,314.9z"/>
	<path d="M-63.5,344c6.8-0.8,12.7,3.7,17.5,8c5.5,5.1,10.2,10.9,13.9,17.4c19.2-2.9,39.4,0.5,56.2,10.5c9.9,5.7,18.3,13.6,25.7,22.1
		c-0.4,2.4-0.9,4.8-1.7,7.1c1.3,1.7,3.1,3.5,2.9,5.8c-0.1,3.4-2.7,5.9-5.3,7.7c-13.1,9.2-27.1,17.5-42.2,22.8
		c-8.1,2.8-16.6,4.5-25.2,3.9c-3.1,1.9-5.7,4.4-8.6,6.7c-5.1-3.8-10.1-7.7-15-11.7c-8.9,5.5-17.7,11.2-27.3,15.3
		c-2.7,1.2-5.8,1.7-8.7,0.8c-3-11-6.1-22.7-13.8-31.4c-2.5-3.2-6.5-4.1-10.4-3.9c1-3.1,2.2-6.2,3.5-9.2
		c-7.3,5.3-14.6,10.6-22.8,14.5c-2.3,1-4.8,2-7.3,2c-2.2,0-4.4-2.1-4-4.4c0.4-18,0.6-36,1.3-54c10.7,6.7,21.9,12.9,31,21.9
		c1.8,0.5,3.8,0.5,5.7,0.5c3.6-2.1,6.9-4.6,10.5-6.6c-2.2-1-4.4-1.7-6.7-2.4c2.5-3.7,4.5-7.8,7.2-11.4C-75.5,368.6-69,356-63.5,344
		 M-82.2,377.7c-2.7,1.5-3.9,4.5-5.4,7.1c1.6,0.5,3.2,1,4.8,1.5c14.6-6.9,29.2-14.5,45-18.1c-5.9-8.2-12.8-16.4-22.4-20.1
		C-66.2,358.7-71.7,370.6-82.2,377.7 M-96.4,400.5c-3.3,0.3-6.5-0.3-9.8-0.4c-6.3-8.3-15.9-13-24.4-18.7c-0.3,15.6-0.9,31.1-1,46.7
		c11-3,19.8-10.7,29-17c3.2,0,6.3,0.3,9.5,0.7c1.4,1.1,2.2,2.7,3.1,4.2c-2.3,0.1-4.5,0.2-6.7,0.2c-0.9,1.5-1.8,3-2.8,4.6
		c4.7,1.8,8.5,5.3,11.2,9.5c5.1,8,8.2,17.1,10.5,26.3c11.9-3.7,22.3-11.1,32.8-17.7c4.9,3.9,9.8,7.8,14.8,11.6c2.4-2.1,4.9-4,7.3-6
		c8.5,1.5,17.2-0.6,25.2-3.3c14.7-5.1,28.2-13.2,40.9-22.1c1.7-1.1,2.9-2.7,4-4.3c-1.5-1.7-3.2-3-5.2-4.1c0.9-2.8,4.8-6,2-8.8
		c-8.1-9.1-17.9-16.9-29-22c-14.2-6.6-30.4-8.5-45.9-6.5C-54.6,376.6-76.9,386.9-96.4,400.5z"/>
	<path d="M16.6,387.5c4.2-2.7,10,1.5,9.3,6.3c0,5-6.7,7.9-10.4,4.5C11.9,395.7,12.5,389.5,16.6,387.5 M17.9,395
		c2.6,1.8,4.4-1.2,3.5-3.5C19,390.4,16.1,392.3,17.9,395z"/>
	<path d="M-26.9,400.1c2.7-1.5,5.8-0.9,8.6-0.3c-0.3,1.3-0.7,2.6-1,3.9c-2,0-4.5-0.9-6.2,0.7c-2.3,1.9-4.8,5-3.1,8.2
		c2.6,6.4,10.5,7.7,16.6,8.3c-0.1,1.5-0.2,2.9-0.3,4.4c-5.1-0.6-10.3-1.5-14.7-4.4c-2-1.4-3.8-3.1-5.6-4.6c-1-2.7-0.9-5.6-1.4-8.4
		C-31.6,405.2-30.1,401.8-26.9,400.1z"/>
	<path d="M-72.3,477.6c-1.1-4.3,5-5.7,8.3-5.9c0.1,8.7,0,17.4,0,26.1c-0.9,0-2.6,0-3.4,0c0-7.6,0-15.1,0-22.7
		C-69.1,476-70.7,476.8-72.3,477.6z"/>
	<path d="M-53.1,476.5c-0.4-3,2.9-3.9,5.2-4.4c3.6-0.8,8,0.6,9.3,4.3c1.3,2.9,0.4,6.2-1.2,8.7c-2.4,3.7-5.9,6.6-9,9.7
		c3.8,0.1,7.5,0.1,11.3,0.1c0,0.8,0,2.3,0,3c-5.6,0-11.2,0.1-16.8-0.1c0.2-0.6,0.6-1.9,0.8-2.5c3.7-3.9,8.3-7.2,11-11.9
		c1.5-2.4,1.6-6.4-1.2-7.9C-46.8,473.8-50,476-53.1,476.5z"/>
	<path d="M-32.7,473.2c4.1-1.5,9.8-2.6,12.8,1.5c2.3,3.4,0,7.4-3,9.4c1.7,1.1,3.9,2.1,4.6,4.2c1.2,3-0.3,6.5-3,8.1
		c-3.9,2.3-8.9,1.8-12.8-0.2c0.3-0.6,0.8-1.7,1-2.3c3.1,0.9,6.6,2.1,9.6,0.4c2.3-1.3,3-4.8,1-6.7c-2.1-2.3-5.4-1.8-8.1-2.4
		c0.1-3.7,4.6-1.6,6.6-3.6c2.1-1.3,2.3-4.4,0.5-6.1c-2.8-2-6.2-0.3-9.3,0.2C-32.8,475.1-32.8,473.9-32.7,473.2z"/>
</g>
</svg>
