<?xml version="1.0" encoding="utf-8"?>
<!-- Generator: Adobe Illustrator 19.0.0, SVG Export Plug-In . SVG Version: 6.00 Build 0)  -->
<svg version="1.1" id="レイヤー_1" xmlns="http://www.w3.org/2000/svg" xmlns:xlink="http://www.w3.org/1999/xlink" x="0px"
	 y="0px" viewBox="-130 192.3 238.3 116.7" style="enable-background:new -130 192.3 238.3 116.7;" xml:space="preserve">
<style type="text/css">
	.st0{fill:#F39800;}
	.st1{fill:#E60012;}
</style>
<g id="XMLID_1_">
	<title>アセット 4favgaming</title>
	<g id="レイヤー_2">
		<g id="レイヤー_1-2">
			<polygon class="st0" points="19,280.5 6.3,252.3 -8.1,220.2 -20.7,192.3 -21,192.3 -46.2,192.3 -33.6,220.2 -20.9,248.4 
				-12,268.1 -6.4,280.5 -1.5,291.3 6.3,308.7 6.4,309 31.9,309 			"/>
			<polygon class="st0" points="-96.5,215.8 -48.6,215.8 -58.9,192.5 -96.5,192.5 			"/>
			<polygon class="st0" points="-96.5,262.3 -80.9,262.3 -69.4,239.1 -96.5,239.1 			"/>
			<polygon class="st1" points="72,192.3 46.6,192.3 19.5,252.3 32.2,280.5 			"/>
			<polygon class="st1" points="-20.2,280.5 -25.8,268.1 -43.5,268.1 -34.7,248.4 -47.4,220.2 -87.4,309 -62,309 -53.8,290.8 
				-53.8,291.3 -25.1,291.3 -15.3,291.3 			"/>
			<polygon class="st1" points="-107.4,192.5 -130,192.5 -130,239.1 -130,262.3 -130,308.8 -107.4,308.8 			"/>
			<path class="st0" d="M71.8,273.3l-1.5,3.4l-2.1-0.9v0.1c1,2,1.1,4.3,0.2,6.4c-0.9,2.2-2.8,3.9-5.1,4.5c-2.2,0.6-4.4,0.3-6.5-0.6
				c-2.1-0.8-3.7-2.4-4.6-4.5c-1.1-2.2-1.1-4.7-0.1-6.9c0.9-2.1,2.8-3.6,5-4l-2.2-1l1.5-3.3L71.8,273.3z M55.9,275.7
				c-1.2,2.5-0.1,5.4,2.3,6.6c0.1,0.1,0.2,0.1,0.3,0.1c2.5,1.1,5.3,0,6.4-2.5c0,0,0-0.1,0-0.1c1.2-2.5,0-5.5-2.5-6.7
				C60.1,272,57.1,273.2,55.9,275.7z"/>
			<path class="st0" d="M65.7,232l1.7-3.7l3.4,1.5l-1.7,3.7L65.7,232z M70.8,234.3l1.7-3.7l15.4,6.9l-1.7,3.7L70.8,234.3z"/>
			<path class="st0" d="M89.6,192.5l13,5.8c2.3,0.8,4.1,2.6,5,4.8c0.9,2.4,0.9,5-0.1,7.3c-1.5,3.4-4.9,5.5-8.5,5.4l1.9-4.2
				c1.3-0.5,2.4-1.5,3-2.8c0.6-1.3,0.7-2.7,0.3-4c-0.5-1.6-1.5-2.2-2.8-3h-0.1c1.1,1.8,1.3,4.1,0.4,6.1c-1,2-2.8,3.6-4.9,4.4
				c-2.3,0.8-4.8,0.6-7-0.4c-2-0.9-3.5-2.5-4.4-4.5c-1-2.2-1-4.8,0-7c0.8-2,2.6-3.4,4.8-3.6v-0.1l-2.1-1L89.6,192.5z M89.1,202
				c-0.5,1.2-0.6,2.5-0.1,3.8c0.5,1.2,1.4,2.1,2.6,2.6c2.5,1.2,5.5,0.1,6.7-2.4c0-0.1,0.1-0.1,0.1-0.2c1-2.5-0.1-5.3-2.6-6.4
				c-2.5-1.2-5.5-0.1-6.6,2.4C89.1,201.9,89.1,201.9,89.1,202z"/>
			<path class="st1" d="M47.8,285.5l13.1,5.9c2.3,0.8,4.1,2.6,5,4.8c0.9,2.3,0.9,5-0.1,7.3c-1.5,3.4-4.9,5.5-8.5,5.4l1.9-4.2
				c1.3-0.5,2.4-1.5,3-2.8c0.6-1.3,0.7-2.7,0.3-4c-0.5-1.6-1.5-2.2-2.8-3h-0.1c1.1,1.8,1.3,4.1,0.4,6.1c-1,2-2.8,3.6-4.9,4.4
				c-2.3,0.8-4.8,0.6-7-0.4c-2-0.9-3.6-2.5-4.4-4.5c-1-2.2-1-4.8,0-7c0.8-2,2.6-3.4,4.8-3.6v-0.1l-2.1-0.9L47.8,285.5z M47.2,295
				c-0.5,1.2-0.5,2.5-0.1,3.8c0.5,1.2,1.4,2.1,2.6,2.6c2.5,1.1,5.4,0,6.5-2.5c1.1-2.5,0-5.4-2.5-6.5c-2.5-1.1-5.4,0-6.5,2.5
				C47.3,294.9,47.3,295,47.2,295z"/>
			<path class="st1" d="M58.5,261.6l1.5-3.4l1.4,0.6l0,0c-1.1-1.3-0.8-3.4-0.1-4.9c0.7-1.6,2.1-2.8,3.8-3.2c0.2-0.1,0.4-0.1,0.6-0.1
				c-0.1-0.2-0.2-0.4-0.3-0.6c-0.7-1.7-0.7-3.7,0.1-5.4c0.7-1.8,2.2-3.2,4-3.8c2.2-0.7,4-0.1,6,0.8l8.6,3.9l-1.7,3.7l-8.2-3.7
				c-1-0.5-2.1-0.8-3.2-0.8c-1,0.2-1.8,0.9-2.2,1.8c-0.5,1-0.4,2.2,0.2,3.1c0.7,1.1,2.2,1.7,3.4,2.2l7.3,3.3l-1.7,3.7l-8.2-3.7
				c-0.9-0.5-2-0.8-3.1-0.7c-1,0.2-1.8,0.9-2.2,1.8c-1.3,2.9,1.4,4.2,3.6,5.2l7.3,3.3l-1.7,3.7L58.5,261.6z"/>
			<path class="st1" d="M74.6,225.9l1.5-3.4l1.4,0.6V223c-0.8-1.6-0.8-3.5,0-5.1c0.8-1.7,2.2-2.9,3.9-3.5c0.2-0.1,0.4-0.1,0.6-0.2
				c2.2-0.4,4.1,0.4,6.1,1.3l8,3.6l-1.7,3.7l-7.2-3.3c-1.2-0.7-2.6-1-4-1c-1.1,0.2-1.9,0.9-2.4,1.9c-0.5,1-0.4,2.2,0.2,3.2
				c0.8,1.1,2.4,1.8,3.7,2.4l7,3.1l-1.7,3.6L74.6,225.9z"/>
		</g>
	</g>
</g>
</svg>
